<?xml version="1.0" encoding="iso-8859-1"?>
<!-- Generator: Adobe Illustrator 19.0.0, SVG Export Plug-In . SVG Version: 6.00 Build 0)  -->
<svg version="1.1" id="Layer_1" xmlns="http://www.w3.org/2000/svg" xmlns:xlink="http://www.w3.org/1999/xlink" x="0px" y="0px"
	 viewBox="0 0 512.005 512.005" style="enable-background:new 0 0 512.005 512.005;" xml:space="preserve">
<path style="fill:#EDEDEE;" d="M256.002,264.275c-112.998,0-208.544-84.462-222.249-196.467l-2.343-19.152h449.183l-2.343,19.152
	C464.546,179.812,369.001,264.275,256.002,264.275z"/>
<path style="fill:#DDDCDF;" d="M256.002,264.275c0-46.428,0-215.618,0-215.618h224.592l-2.343,19.152
	C464.546,179.812,369.001,264.275,256.002,264.275z"/>
<rect x="238.921" y="247.196" style="fill:#EDEDEE;" width="34.156" height="247.731"/>
<rect x="161.399" y="477.849" style="fill:#DDDCDF;" width="189.211" height="34.156"/>
<polygon style="fill:#7F7F83;" points="148.705,135.953 106.567,10.716 138.998,0 181.136,125.237 "/>
<path style="fill:#E3744E;" d="M45.979,118.216c31.854,85.994,114.732,146.059,210.023,146.059s178.168-60.065,210.023-146.059
	C466.025,118.216,45.979,118.216,45.979,118.216z"/>
<path style="fill:#E05323;" d="M256.002,118.216c0,0,0,96.474,0,146.059c95.291,0,178.168-60.065,210.023-146.059
	C466.025,118.216,256.002,118.216,256.002,118.216z"/>
<g>
</g>
<g>
</g>
<g>
</g>
<g>
</g>
<g>
</g>
<g>
</g>
<g>
</g>
<g>
</g>
<g>
</g>
<g>
</g>
<g>
</g>
<g>
</g>
<g>
</g>
<g>
</g>
<g>
</g>
</svg>
